<mxfile host="Electron" agent="Mozilla/5.0 (Windows NT 10.0; Win64; x64) AppleWebKit/537.36 (KHTML, like Gecko) draw.io/27.0.5 Chrome/134.0.6998.205 Electron/35.3.0 Safari/537.36" version="27.0.5" pages="4">
  <diagram name="grid" id="UXwxiOKOP1XXJvtJxuBs">
    <mxGraphModel dx="690" dy="593" grid="1" gridSize="10" guides="1" tooltips="1" connect="1" arrows="1" fold="1" page="1" pageScale="1" pageWidth="850" pageHeight="1100" math="1" shadow="0">
      <root>
        <mxCell id="0" />
        <mxCell id="1" parent="0" />
        <mxCell id="W9ctnf72wMfAFWKh78AF-2" value="" style="rounded=0;whiteSpace=wrap;html=1;" vertex="1" parent="1">
          <mxGeometry x="240" y="120" width="320" height="240" as="geometry" />
        </mxCell>
        <mxCell id="W9ctnf72wMfAFWKh78AF-3" value="" style="endArrow=classic;startArrow=classic;html=1;rounded=0;" edge="1" parent="1">
          <mxGeometry width="50" height="50" relative="1" as="geometry">
            <mxPoint x="160" y="240" as="sourcePoint" />
            <mxPoint x="640" y="240" as="targetPoint" />
          </mxGeometry>
        </mxCell>
        <mxCell id="W9ctnf72wMfAFWKh78AF-4" value="" style="endArrow=classic;startArrow=classic;html=1;rounded=0;" edge="1" parent="1">
          <mxGeometry width="50" height="50" relative="1" as="geometry">
            <mxPoint x="400" y="440" as="sourcePoint" />
            <mxPoint x="400" y="40" as="targetPoint" />
          </mxGeometry>
        </mxCell>
        <mxCell id="W9ctnf72wMfAFWKh78AF-7" value="(x_offset, y_offset)" style="text;html=1;align=center;verticalAlign=middle;whiteSpace=wrap;rounded=0;" vertex="1" parent="1">
          <mxGeometry x="530" y="70" width="110" height="30" as="geometry" />
        </mxCell>
        <mxCell id="W9ctnf72wMfAFWKh78AF-8" value="" style="endArrow=classic;startArrow=classic;html=1;rounded=0;dashed=1;" edge="1" parent="1">
          <mxGeometry width="50" height="50" relative="1" as="geometry">
            <mxPoint x="200" y="360" as="sourcePoint" />
            <mxPoint x="200" y="120" as="targetPoint" />
          </mxGeometry>
        </mxCell>
        <mxCell id="W9ctnf72wMfAFWKh78AF-9" value="y_max" style="text;html=1;align=center;verticalAlign=middle;whiteSpace=wrap;rounded=0;" vertex="1" parent="1">
          <mxGeometry x="260" y="430" width="60" height="30" as="geometry" />
        </mxCell>
        <mxCell id="W9ctnf72wMfAFWKh78AF-11" value="" style="endArrow=classic;startArrow=classic;html=1;rounded=0;dashed=1;" edge="1" parent="1">
          <mxGeometry width="50" height="50" relative="1" as="geometry">
            <mxPoint x="240" y="420" as="sourcePoint" />
            <mxPoint x="560" y="420" as="targetPoint" />
          </mxGeometry>
        </mxCell>
        <mxCell id="W9ctnf72wMfAFWKh78AF-12" value="x_max" style="text;html=1;align=center;verticalAlign=middle;whiteSpace=wrap;rounded=0;" vertex="1" parent="1">
          <mxGeometry x="140" y="140" width="60" height="30" as="geometry" />
        </mxCell>
        <mxCell id="W9ctnf72wMfAFWKh78AF-13" value="(-x_offset, -y_offset)" style="text;html=1;align=center;verticalAlign=middle;whiteSpace=wrap;rounded=0;" vertex="1" parent="1">
          <mxGeometry x="130" y="370" width="110" height="30" as="geometry" />
        </mxCell>
        <mxCell id="W9ctnf72wMfAFWKh78AF-15" value="x_offset = x_max / 2&lt;div&gt;y_offset = y_max / 2&lt;/div&gt;" style="text;html=1;align=center;verticalAlign=middle;whiteSpace=wrap;rounded=0;" vertex="1" parent="1">
          <mxGeometry x="130" y="50" width="110" height="30" as="geometry" />
        </mxCell>
      </root>
    </mxGraphModel>
  </diagram>
  <diagram id="PENP-Liftr4Pqy4Q3THp" name="polar">
    <mxGraphModel dx="552" dy="474" grid="1" gridSize="10" guides="1" tooltips="1" connect="1" arrows="1" fold="1" page="1" pageScale="1" pageWidth="850" pageHeight="1100" math="1" shadow="0">
      <root>
        <mxCell id="0" />
        <mxCell id="1" parent="0" />
        <mxCell id="8gpoj-13OM1BuMFdXHJB-11" value="" style="verticalLabelPosition=bottom;verticalAlign=top;html=1;shape=mxgraph.basic.arc;startAngle=0.9308683008029874;endAngle=0.24344062594951216;dashed=1;dashPattern=1 2;" vertex="1" parent="1">
          <mxGeometry x="340" y="190" width="100" height="100" as="geometry" />
        </mxCell>
        <mxCell id="8gpoj-13OM1BuMFdXHJB-3" value="" style="endArrow=classic;startArrow=classic;html=1;rounded=0;" edge="1" parent="1">
          <mxGeometry width="50" height="50" relative="1" as="geometry">
            <mxPoint x="400" y="360" as="sourcePoint" />
            <mxPoint x="400" y="90" as="targetPoint" />
          </mxGeometry>
        </mxCell>
        <mxCell id="8gpoj-13OM1BuMFdXHJB-9" value="&lt;font style=&quot;font-size: 15px;&quot;&gt;r&lt;/font&gt;" style="text;html=1;align=center;verticalAlign=middle;whiteSpace=wrap;rounded=0;" vertex="1" parent="1">
          <mxGeometry x="310" y="170" width="30" height="30" as="geometry" />
        </mxCell>
        <mxCell id="8gpoj-13OM1BuMFdXHJB-12" value="" style="endArrow=classic;startArrow=classic;html=1;rounded=0;dashed=1;" edge="1" parent="1">
          <mxGeometry width="50" height="50" relative="1" as="geometry">
            <mxPoint x="400" y="240" as="sourcePoint" />
            <mxPoint x="320" y="120" as="targetPoint" />
          </mxGeometry>
        </mxCell>
        <mxCell id="8gpoj-13OM1BuMFdXHJB-13" value="" style="endArrow=classic;startArrow=classic;html=1;rounded=0;" edge="1" parent="1">
          <mxGeometry width="50" height="50" relative="1" as="geometry">
            <mxPoint x="240" y="240" as="sourcePoint" />
            <mxPoint x="560" y="240" as="targetPoint" />
          </mxGeometry>
        </mxCell>
        <mxCell id="8gpoj-13OM1BuMFdXHJB-14" value="" style="endArrow=classic;startArrow=classic;html=1;rounded=0;" edge="1" parent="1">
          <mxGeometry width="50" height="50" relative="1" as="geometry">
            <mxPoint x="440" y="40" as="sourcePoint" />
            <mxPoint x="200" y="200" as="targetPoint" />
          </mxGeometry>
        </mxCell>
        <mxCell id="8gpoj-13OM1BuMFdXHJB-16" value="&lt;span style=&quot;font-size:12.0pt;line-height:115%;&lt;br/&gt;font-family:&amp;quot;Aptos Mono&amp;quot;;mso-fareast-font-family:Aptos;mso-fareast-theme-font:&lt;br/&gt;minor-latin;mso-bidi-font-family:&amp;quot;Times New Roman&amp;quot;;mso-bidi-theme-font:minor-bidi;&lt;br/&gt;mso-ansi-language:EN-US;mso-fareast-language:EN-US;mso-bidi-language:AR-SA&quot;&gt;r = x cos &lt;/span&gt;&lt;span style=&quot;font-size:12.0pt;line-height:115%;font-family:Symbol;&lt;br/&gt;mso-ascii-font-family:&amp;quot;Aptos Mono&amp;quot;;mso-fareast-font-family:Aptos;mso-fareast-theme-font:&lt;br/&gt;minor-latin;mso-hansi-font-family:&amp;quot;Aptos Mono&amp;quot;;mso-bidi-font-family:&amp;quot;Times New Roman&amp;quot;;&lt;br/&gt;mso-bidi-theme-font:minor-bidi;mso-ansi-language:EN-US;mso-fareast-language:&lt;br/&gt;EN-US;mso-bidi-language:AR-SA;mso-char-type:symbol;mso-symbol-font-family:Symbol&quot;&gt;q&lt;/span&gt;&lt;span style=&quot;font-size:12.0pt;line-height:115%;font-family:&amp;quot;Aptos Mono&amp;quot;;mso-fareast-font-family:&lt;br/&gt;Aptos;mso-fareast-theme-font:minor-latin;mso-bidi-font-family:&amp;quot;Times New Roman&amp;quot;;&lt;br/&gt;mso-bidi-theme-font:minor-bidi;mso-ansi-language:EN-US;mso-fareast-language:&lt;br/&gt;EN-US;mso-bidi-language:AR-SA&quot;&gt; + y sin &lt;/span&gt;&lt;span style=&quot;font-size:12.0pt;&lt;br/&gt;line-height:115%;font-family:Symbol;mso-ascii-font-family:&amp;quot;Aptos Mono&amp;quot;;&lt;br/&gt;mso-fareast-font-family:Aptos;mso-fareast-theme-font:minor-latin;mso-hansi-font-family:&lt;br/&gt;&amp;quot;Aptos Mono&amp;quot;;mso-bidi-font-family:&amp;quot;Times New Roman&amp;quot;;mso-bidi-theme-font:minor-bidi;&lt;br/&gt;mso-ansi-language:EN-US;mso-fareast-language:EN-US;mso-bidi-language:AR-SA;&lt;br/&gt;mso-char-type:symbol;mso-symbol-font-family:Symbol&quot;&gt;q&lt;/span&gt;" style="text;html=1;align=center;verticalAlign=middle;whiteSpace=wrap;rounded=0;" vertex="1" parent="1">
          <mxGeometry x="60" y="70" width="220" height="30" as="geometry" />
        </mxCell>
        <mxCell id="8gpoj-13OM1BuMFdXHJB-19" value="&lt;span style=&quot;color: rgb(255, 255, 255); font-family: Symbol; font-size: 21px; font-style: normal; font-variant-ligatures: normal; font-variant-caps: normal; font-weight: 400; letter-spacing: normal; orphans: 2; text-align: center; text-indent: 0px; text-transform: none; widows: 2; word-spacing: 0px; -webkit-text-stroke-width: 0px; white-space: normal; background-color: rgb(27, 29, 30); text-decoration-thickness: initial; text-decoration-style: initial; text-decoration-color: initial; display: inline !important; float: none;&quot;&gt;q&lt;/span&gt;" style="text;whiteSpace=wrap;html=1;" vertex="1" parent="1">
          <mxGeometry x="430" y="170" width="20" height="30" as="geometry" />
        </mxCell>
      </root>
    </mxGraphModel>
  </diagram>
  <diagram id="Qsx6W3wqpOE9r13YVH0m" name="map">
    <mxGraphModel dx="1097" dy="653" grid="0" gridSize="10" guides="1" tooltips="1" connect="1" arrows="1" fold="1" page="1" pageScale="1" pageWidth="850" pageHeight="1100" background="#ffffff" math="0" shadow="0">
      <root>
        <mxCell id="0" />
        <mxCell id="1" parent="0" />
        <mxCell id="N6bsUqTcB75Ks-udpx8C-1" value="" style="endArrow=none;html=1;rounded=0;strokeColor=#000000;strokeWidth=4;" parent="1" edge="1">
          <mxGeometry width="50" height="50" relative="1" as="geometry">
            <mxPoint x="120" y="510" as="sourcePoint" />
            <mxPoint x="120" y="80" as="targetPoint" />
          </mxGeometry>
        </mxCell>
        <mxCell id="N6bsUqTcB75Ks-udpx8C-3" value="" style="endArrow=none;html=1;rounded=0;strokeColor=#000000;strokeWidth=3;" parent="1" edge="1">
          <mxGeometry width="50" height="50" relative="1" as="geometry">
            <mxPoint x="520" y="510" as="sourcePoint" />
            <mxPoint x="520" y="80" as="targetPoint" />
          </mxGeometry>
        </mxCell>
        <mxCell id="N6bsUqTcB75Ks-udpx8C-5" value="" style="endArrow=classic;html=1;rounded=0;endFill=1;endSize=12;" parent="1" edge="1">
          <mxGeometry width="50" height="50" relative="1" as="geometry">
            <mxPoint x="120" y="80" as="sourcePoint" />
            <mxPoint x="518" y="205" as="targetPoint" />
          </mxGeometry>
        </mxCell>
        <mxCell id="N6bsUqTcB75Ks-udpx8C-6" value="" style="endArrow=none;html=1;rounded=0;" parent="1" edge="1">
          <mxGeometry width="50" height="50" relative="1" as="geometry">
            <mxPoint x="110" y="450" as="sourcePoint" />
            <mxPoint x="130" y="450" as="targetPoint" />
          </mxGeometry>
        </mxCell>
        <mxCell id="N6bsUqTcB75Ks-udpx8C-7" value="" style="endArrow=none;html=1;rounded=0;" parent="1" edge="1">
          <mxGeometry width="50" height="50" relative="1" as="geometry">
            <mxPoint x="509" y="206" as="sourcePoint" />
            <mxPoint x="527" y="206" as="targetPoint" />
          </mxGeometry>
        </mxCell>
        <mxCell id="N6bsUqTcB75Ks-udpx8C-8" value="" style="endArrow=none;html=1;rounded=0;" parent="1" edge="1">
          <mxGeometry width="50" height="50" relative="1" as="geometry">
            <mxPoint x="510" y="370" as="sourcePoint" />
            <mxPoint x="530" y="370" as="targetPoint" />
          </mxGeometry>
        </mxCell>
        <mxCell id="N6bsUqTcB75Ks-udpx8C-12" value="&lt;font style=&quot;color: rgb(0, 0, 0); font-size: 16px;&quot;&gt;&lt;b style=&quot;&quot;&gt;lower_in&lt;/b&gt;&lt;/font&gt;" style="whiteSpace=wrap;html=1;strokeColor=none;fillColor=#FFFFFF;" parent="1" vertex="1">
          <mxGeometry x="45" y="431" width="60" height="30" as="geometry" />
        </mxCell>
        <mxCell id="N6bsUqTcB75Ks-udpx8C-13" value="&lt;font style=&quot;color: rgb(0, 0, 0); font-size: 16px;&quot;&gt;&lt;b style=&quot;&quot;&gt;upper_out&lt;/b&gt;&lt;/font&gt;" style="whiteSpace=wrap;html=1;strokeColor=none;fillColor=#FFFFFF;" parent="1" vertex="1">
          <mxGeometry x="532" y="191" width="70" height="30" as="geometry" />
        </mxCell>
        <mxCell id="N6bsUqTcB75Ks-udpx8C-14" value="&lt;font style=&quot;color: rgb(0, 0, 0); font-size: 16px;&quot;&gt;&lt;b style=&quot;&quot;&gt;upper_in&lt;/b&gt;&lt;/font&gt;" style="whiteSpace=wrap;html=1;strokeColor=none;fillColor=#FFFFFF;" parent="1" vertex="1">
          <mxGeometry x="45" y="120" width="60" height="30" as="geometry" />
        </mxCell>
        <mxCell id="N6bsUqTcB75Ks-udpx8C-15" value="&lt;font style=&quot;color: rgb(0, 0, 0); font-size: 16px;&quot;&gt;&lt;b style=&quot;&quot;&gt;lower_out&lt;/b&gt;&lt;/font&gt;" style="whiteSpace=wrap;html=1;strokeColor=none;gradientColor=none;fillColor=#FFFFFF;" parent="1" vertex="1">
          <mxGeometry x="537" y="354" width="60" height="30" as="geometry" />
        </mxCell>
        <mxCell id="Mi_LfP6fhEN-xNzWwGtJ-5" value="" style="endArrow=classic;html=1;rounded=0;endFill=1;endSize=12;" edge="1" parent="1">
          <mxGeometry width="50" height="50" relative="1" as="geometry">
            <mxPoint x="122" y="137" as="sourcePoint" />
            <mxPoint x="518" y="204" as="targetPoint" />
          </mxGeometry>
        </mxCell>
        <mxCell id="Mi_LfP6fhEN-xNzWwGtJ-6" value="" style="endArrow=none;html=1;rounded=0;" edge="1" parent="1">
          <mxGeometry width="50" height="50" relative="1" as="geometry">
            <mxPoint x="110" y="136" as="sourcePoint" />
            <mxPoint x="131" y="136" as="targetPoint" />
          </mxGeometry>
        </mxCell>
        <mxCell id="Mi_LfP6fhEN-xNzWwGtJ-7" value="" style="endArrow=classic;html=1;rounded=0;endFill=1;endSize=12;" edge="1" parent="1">
          <mxGeometry width="50" height="50" relative="1" as="geometry">
            <mxPoint x="121" y="509" as="sourcePoint" />
            <mxPoint x="517" y="371" as="targetPoint" />
          </mxGeometry>
        </mxCell>
        <mxCell id="Mi_LfP6fhEN-xNzWwGtJ-8" value="" style="endArrow=classic;html=1;rounded=0;endFill=1;endSize=12;" edge="1" parent="1">
          <mxGeometry width="50" height="50" relative="1" as="geometry">
            <mxPoint x="121" y="452" as="sourcePoint" />
            <mxPoint x="518" y="372" as="targetPoint" />
          </mxGeometry>
        </mxCell>
      </root>
    </mxGraphModel>
  </diagram>
  <diagram name="histogram" id="q7_ZmfeC5R90_TpZlMrT">
    <mxGraphModel dx="815" dy="485" grid="0" gridSize="10" guides="1" tooltips="1" connect="1" arrows="1" fold="1" page="1" pageScale="1" pageWidth="850" pageHeight="1100" background="#ffffff" math="0" shadow="0">
      <root>
        <mxCell id="nTCiAnWbDD8MHm8vVQ30-0" />
        <mxCell id="nTCiAnWbDD8MHm8vVQ30-1" parent="nTCiAnWbDD8MHm8vVQ30-0" />
        <mxCell id="hXCaVewzjo8pj_LVlynA-0" value="" style="endArrow=none;html=1;rounded=0;strokeColor=#000000;strokeWidth=4;" edge="1" parent="nTCiAnWbDD8MHm8vVQ30-1">
          <mxGeometry width="50" height="50" relative="1" as="geometry">
            <mxPoint x="130" y="520" as="sourcePoint" />
            <mxPoint x="130" y="90" as="targetPoint" />
          </mxGeometry>
        </mxCell>
        <mxCell id="hXCaVewzjo8pj_LVlynA-2" value="" style="endArrow=classic;html=1;rounded=0;endFill=1;endSize=12;" edge="1" parent="nTCiAnWbDD8MHm8vVQ30-1">
          <mxGeometry width="50" height="50" relative="1" as="geometry">
            <mxPoint x="130" y="90" as="sourcePoint" />
            <mxPoint x="528" y="215" as="targetPoint" />
          </mxGeometry>
        </mxCell>
        <mxCell id="hXCaVewzjo8pj_LVlynA-3" value="" style="endArrow=none;html=1;rounded=0;" edge="1" parent="nTCiAnWbDD8MHm8vVQ30-1">
          <mxGeometry width="50" height="50" relative="1" as="geometry">
            <mxPoint x="120" y="460" as="sourcePoint" />
            <mxPoint x="140" y="460" as="targetPoint" />
          </mxGeometry>
        </mxCell>
        <mxCell id="hXCaVewzjo8pj_LVlynA-6" value="&lt;font style=&quot;color: rgb(0, 0, 0); font-size: 16px;&quot;&gt;&lt;b style=&quot;&quot;&gt;lower_value&lt;/b&gt;&lt;/font&gt;" style="whiteSpace=wrap;html=1;strokeColor=none;fillColor=#FFFFFF;" vertex="1" parent="nTCiAnWbDD8MHm8vVQ30-1">
          <mxGeometry x="42" y="441" width="60" height="30" as="geometry" />
        </mxCell>
        <mxCell id="hXCaVewzjo8pj_LVlynA-8" value="&lt;font style=&quot;color: rgb(0, 0, 0); font-size: 16px;&quot;&gt;&lt;b style=&quot;&quot;&gt;upper_value&lt;/b&gt;&lt;/font&gt;" style="whiteSpace=wrap;html=1;strokeColor=none;fillColor=#FFFFFF;" vertex="1" parent="nTCiAnWbDD8MHm8vVQ30-1">
          <mxGeometry x="42" y="130" width="60" height="30" as="geometry" />
        </mxCell>
        <mxCell id="hXCaVewzjo8pj_LVlynA-10" value="" style="endArrow=classic;html=1;rounded=0;endFill=1;endSize=12;" edge="1" parent="nTCiAnWbDD8MHm8vVQ30-1">
          <mxGeometry width="50" height="50" relative="1" as="geometry">
            <mxPoint x="132" y="147" as="sourcePoint" />
            <mxPoint x="528" y="214" as="targetPoint" />
          </mxGeometry>
        </mxCell>
        <mxCell id="hXCaVewzjo8pj_LVlynA-11" value="" style="endArrow=none;html=1;rounded=0;" edge="1" parent="nTCiAnWbDD8MHm8vVQ30-1">
          <mxGeometry width="50" height="50" relative="1" as="geometry">
            <mxPoint x="120" y="146" as="sourcePoint" />
            <mxPoint x="141" y="146" as="targetPoint" />
          </mxGeometry>
        </mxCell>
        <mxCell id="hXCaVewzjo8pj_LVlynA-12" value="" style="endArrow=classic;html=1;rounded=0;endFill=1;endSize=12;" edge="1" parent="nTCiAnWbDD8MHm8vVQ30-1">
          <mxGeometry width="50" height="50" relative="1" as="geometry">
            <mxPoint x="131" y="519" as="sourcePoint" />
            <mxPoint x="527" y="381" as="targetPoint" />
          </mxGeometry>
        </mxCell>
        <mxCell id="hXCaVewzjo8pj_LVlynA-13" value="" style="endArrow=classic;html=1;rounded=0;endFill=1;endSize=12;" edge="1" parent="nTCiAnWbDD8MHm8vVQ30-1">
          <mxGeometry width="50" height="50" relative="1" as="geometry">
            <mxPoint x="131" y="462" as="sourcePoint" />
            <mxPoint x="528" y="382" as="targetPoint" />
          </mxGeometry>
        </mxCell>
        <mxCell id="hXCaVewzjo8pj_LVlynA-14" value="" style="childLayout=tableLayout;recursiveResize=0;shadow=0;fillColor=none;" vertex="1" parent="nTCiAnWbDD8MHm8vVQ30-1">
          <mxGeometry x="529" y="213" width="40" height="170" as="geometry" />
        </mxCell>
        <mxCell id="hXCaVewzjo8pj_LVlynA-27" style="shape=tableRow;horizontal=0;startSize=0;swimlaneHead=0;swimlaneBody=0;top=0;left=0;bottom=0;right=0;dropTarget=0;collapsible=0;recursiveResize=0;expand=0;fontStyle=0;fillColor=none;strokeColor=inherit;" vertex="1" parent="hXCaVewzjo8pj_LVlynA-14">
          <mxGeometry width="40" height="10" as="geometry" />
        </mxCell>
        <mxCell id="hXCaVewzjo8pj_LVlynA-28" style="connectable=0;recursiveResize=0;strokeColor=inherit;fillColor=none;align=center;whiteSpace=wrap;html=1;" vertex="1" parent="hXCaVewzjo8pj_LVlynA-27">
          <mxGeometry width="40" height="10" as="geometry">
            <mxRectangle width="40" height="10" as="alternateBounds" />
          </mxGeometry>
        </mxCell>
        <mxCell id="hXCaVewzjo8pj_LVlynA-29" style="shape=tableRow;horizontal=0;startSize=0;swimlaneHead=0;swimlaneBody=0;top=0;left=0;bottom=0;right=0;dropTarget=0;collapsible=0;recursiveResize=0;expand=0;fontStyle=0;fillColor=none;strokeColor=inherit;" vertex="1" parent="hXCaVewzjo8pj_LVlynA-14">
          <mxGeometry y="10" width="40" height="10" as="geometry" />
        </mxCell>
        <mxCell id="hXCaVewzjo8pj_LVlynA-30" style="connectable=0;recursiveResize=0;strokeColor=inherit;fillColor=none;align=center;whiteSpace=wrap;html=1;" vertex="1" parent="hXCaVewzjo8pj_LVlynA-29">
          <mxGeometry width="40" height="10" as="geometry">
            <mxRectangle width="40" height="10" as="alternateBounds" />
          </mxGeometry>
        </mxCell>
        <mxCell id="hXCaVewzjo8pj_LVlynA-31" style="shape=tableRow;horizontal=0;startSize=0;swimlaneHead=0;swimlaneBody=0;top=0;left=0;bottom=0;right=0;dropTarget=0;collapsible=0;recursiveResize=0;expand=0;fontStyle=0;fillColor=none;strokeColor=inherit;" vertex="1" parent="hXCaVewzjo8pj_LVlynA-14">
          <mxGeometry y="20" width="40" height="10" as="geometry" />
        </mxCell>
        <mxCell id="hXCaVewzjo8pj_LVlynA-32" style="connectable=0;recursiveResize=0;strokeColor=inherit;fillColor=none;align=center;whiteSpace=wrap;html=1;" vertex="1" parent="hXCaVewzjo8pj_LVlynA-31">
          <mxGeometry width="40" height="10" as="geometry">
            <mxRectangle width="40" height="10" as="alternateBounds" />
          </mxGeometry>
        </mxCell>
        <mxCell id="hXCaVewzjo8pj_LVlynA-33" style="shape=tableRow;horizontal=0;startSize=0;swimlaneHead=0;swimlaneBody=0;top=0;left=0;bottom=0;right=0;dropTarget=0;collapsible=0;recursiveResize=0;expand=0;fontStyle=0;fillColor=none;strokeColor=inherit;" vertex="1" parent="hXCaVewzjo8pj_LVlynA-14">
          <mxGeometry y="30" width="40" height="10" as="geometry" />
        </mxCell>
        <mxCell id="hXCaVewzjo8pj_LVlynA-34" style="connectable=0;recursiveResize=0;strokeColor=inherit;fillColor=none;align=center;whiteSpace=wrap;html=1;" vertex="1" parent="hXCaVewzjo8pj_LVlynA-33">
          <mxGeometry width="40" height="10" as="geometry">
            <mxRectangle width="40" height="10" as="alternateBounds" />
          </mxGeometry>
        </mxCell>
        <mxCell id="hXCaVewzjo8pj_LVlynA-35" style="shape=tableRow;horizontal=0;startSize=0;swimlaneHead=0;swimlaneBody=0;top=0;left=0;bottom=0;right=0;dropTarget=0;collapsible=0;recursiveResize=0;expand=0;fontStyle=0;fillColor=none;strokeColor=inherit;" vertex="1" parent="hXCaVewzjo8pj_LVlynA-14">
          <mxGeometry y="40" width="40" height="10" as="geometry" />
        </mxCell>
        <mxCell id="hXCaVewzjo8pj_LVlynA-36" style="connectable=0;recursiveResize=0;strokeColor=inherit;fillColor=none;align=center;whiteSpace=wrap;html=1;" vertex="1" parent="hXCaVewzjo8pj_LVlynA-35">
          <mxGeometry width="40" height="10" as="geometry">
            <mxRectangle width="40" height="10" as="alternateBounds" />
          </mxGeometry>
        </mxCell>
        <mxCell id="hXCaVewzjo8pj_LVlynA-37" style="shape=tableRow;horizontal=0;startSize=0;swimlaneHead=0;swimlaneBody=0;top=0;left=0;bottom=0;right=0;dropTarget=0;collapsible=0;recursiveResize=0;expand=0;fontStyle=0;fillColor=none;strokeColor=inherit;" vertex="1" parent="hXCaVewzjo8pj_LVlynA-14">
          <mxGeometry y="50" width="40" height="10" as="geometry" />
        </mxCell>
        <mxCell id="hXCaVewzjo8pj_LVlynA-38" style="connectable=0;recursiveResize=0;strokeColor=inherit;fillColor=none;align=center;whiteSpace=wrap;html=1;" vertex="1" parent="hXCaVewzjo8pj_LVlynA-37">
          <mxGeometry width="40" height="10" as="geometry">
            <mxRectangle width="40" height="10" as="alternateBounds" />
          </mxGeometry>
        </mxCell>
        <mxCell id="hXCaVewzjo8pj_LVlynA-39" style="shape=tableRow;horizontal=0;startSize=0;swimlaneHead=0;swimlaneBody=0;top=0;left=0;bottom=0;right=0;dropTarget=0;collapsible=0;recursiveResize=0;expand=0;fontStyle=0;fillColor=none;strokeColor=inherit;" vertex="1" parent="hXCaVewzjo8pj_LVlynA-14">
          <mxGeometry y="60" width="40" height="10" as="geometry" />
        </mxCell>
        <mxCell id="hXCaVewzjo8pj_LVlynA-40" style="connectable=0;recursiveResize=0;strokeColor=inherit;fillColor=none;align=center;whiteSpace=wrap;html=1;" vertex="1" parent="hXCaVewzjo8pj_LVlynA-39">
          <mxGeometry width="40" height="10" as="geometry">
            <mxRectangle width="40" height="10" as="alternateBounds" />
          </mxGeometry>
        </mxCell>
        <mxCell id="hXCaVewzjo8pj_LVlynA-41" style="shape=tableRow;horizontal=0;startSize=0;swimlaneHead=0;swimlaneBody=0;top=0;left=0;bottom=0;right=0;dropTarget=0;collapsible=0;recursiveResize=0;expand=0;fontStyle=0;fillColor=none;strokeColor=inherit;" vertex="1" parent="hXCaVewzjo8pj_LVlynA-14">
          <mxGeometry y="70" width="40" height="10" as="geometry" />
        </mxCell>
        <mxCell id="hXCaVewzjo8pj_LVlynA-42" style="connectable=0;recursiveResize=0;strokeColor=inherit;fillColor=none;align=center;whiteSpace=wrap;html=1;" vertex="1" parent="hXCaVewzjo8pj_LVlynA-41">
          <mxGeometry width="40" height="10" as="geometry">
            <mxRectangle width="40" height="10" as="alternateBounds" />
          </mxGeometry>
        </mxCell>
        <mxCell id="hXCaVewzjo8pj_LVlynA-43" style="shape=tableRow;horizontal=0;startSize=0;swimlaneHead=0;swimlaneBody=0;top=0;left=0;bottom=0;right=0;dropTarget=0;collapsible=0;recursiveResize=0;expand=0;fontStyle=0;fillColor=none;strokeColor=inherit;" vertex="1" parent="hXCaVewzjo8pj_LVlynA-14">
          <mxGeometry y="80" width="40" height="10" as="geometry" />
        </mxCell>
        <mxCell id="hXCaVewzjo8pj_LVlynA-44" style="connectable=0;recursiveResize=0;strokeColor=inherit;fillColor=none;align=center;whiteSpace=wrap;html=1;" vertex="1" parent="hXCaVewzjo8pj_LVlynA-43">
          <mxGeometry width="40" height="10" as="geometry">
            <mxRectangle width="40" height="10" as="alternateBounds" />
          </mxGeometry>
        </mxCell>
        <mxCell id="hXCaVewzjo8pj_LVlynA-45" style="shape=tableRow;horizontal=0;startSize=0;swimlaneHead=0;swimlaneBody=0;top=0;left=0;bottom=0;right=0;dropTarget=0;collapsible=0;recursiveResize=0;expand=0;fontStyle=0;fillColor=none;strokeColor=inherit;" vertex="1" parent="hXCaVewzjo8pj_LVlynA-14">
          <mxGeometry y="90" width="40" height="10" as="geometry" />
        </mxCell>
        <mxCell id="hXCaVewzjo8pj_LVlynA-46" style="connectable=0;recursiveResize=0;strokeColor=inherit;fillColor=none;align=center;whiteSpace=wrap;html=1;" vertex="1" parent="hXCaVewzjo8pj_LVlynA-45">
          <mxGeometry width="40" height="10" as="geometry">
            <mxRectangle width="40" height="10" as="alternateBounds" />
          </mxGeometry>
        </mxCell>
        <mxCell id="hXCaVewzjo8pj_LVlynA-47" style="shape=tableRow;horizontal=0;startSize=0;swimlaneHead=0;swimlaneBody=0;top=0;left=0;bottom=0;right=0;dropTarget=0;collapsible=0;recursiveResize=0;expand=0;fontStyle=0;fillColor=none;strokeColor=inherit;" vertex="1" parent="hXCaVewzjo8pj_LVlynA-14">
          <mxGeometry y="100" width="40" height="10" as="geometry" />
        </mxCell>
        <mxCell id="hXCaVewzjo8pj_LVlynA-48" style="connectable=0;recursiveResize=0;strokeColor=inherit;fillColor=none;align=center;whiteSpace=wrap;html=1;" vertex="1" parent="hXCaVewzjo8pj_LVlynA-47">
          <mxGeometry width="40" height="10" as="geometry">
            <mxRectangle width="40" height="10" as="alternateBounds" />
          </mxGeometry>
        </mxCell>
        <mxCell id="hXCaVewzjo8pj_LVlynA-49" style="shape=tableRow;horizontal=0;startSize=0;swimlaneHead=0;swimlaneBody=0;top=0;left=0;bottom=0;right=0;dropTarget=0;collapsible=0;recursiveResize=0;expand=0;fontStyle=0;fillColor=none;strokeColor=inherit;" vertex="1" parent="hXCaVewzjo8pj_LVlynA-14">
          <mxGeometry y="110" width="40" height="10" as="geometry" />
        </mxCell>
        <mxCell id="hXCaVewzjo8pj_LVlynA-50" style="connectable=0;recursiveResize=0;strokeColor=inherit;fillColor=none;align=center;whiteSpace=wrap;html=1;" vertex="1" parent="hXCaVewzjo8pj_LVlynA-49">
          <mxGeometry width="40" height="10" as="geometry">
            <mxRectangle width="40" height="10" as="alternateBounds" />
          </mxGeometry>
        </mxCell>
        <mxCell id="hXCaVewzjo8pj_LVlynA-51" style="shape=tableRow;horizontal=0;startSize=0;swimlaneHead=0;swimlaneBody=0;top=0;left=0;bottom=0;right=0;dropTarget=0;collapsible=0;recursiveResize=0;expand=0;fontStyle=0;fillColor=none;strokeColor=inherit;" vertex="1" parent="hXCaVewzjo8pj_LVlynA-14">
          <mxGeometry y="120" width="40" height="10" as="geometry" />
        </mxCell>
        <mxCell id="hXCaVewzjo8pj_LVlynA-52" style="connectable=0;recursiveResize=0;strokeColor=inherit;fillColor=none;align=center;whiteSpace=wrap;html=1;" vertex="1" parent="hXCaVewzjo8pj_LVlynA-51">
          <mxGeometry width="40" height="10" as="geometry">
            <mxRectangle width="40" height="10" as="alternateBounds" />
          </mxGeometry>
        </mxCell>
        <mxCell id="hXCaVewzjo8pj_LVlynA-53" style="shape=tableRow;horizontal=0;startSize=0;swimlaneHead=0;swimlaneBody=0;top=0;left=0;bottom=0;right=0;dropTarget=0;collapsible=0;recursiveResize=0;expand=0;fontStyle=0;fillColor=none;strokeColor=inherit;" vertex="1" parent="hXCaVewzjo8pj_LVlynA-14">
          <mxGeometry y="130" width="40" height="10" as="geometry" />
        </mxCell>
        <mxCell id="hXCaVewzjo8pj_LVlynA-54" style="connectable=0;recursiveResize=0;strokeColor=inherit;fillColor=none;align=center;whiteSpace=wrap;html=1;" vertex="1" parent="hXCaVewzjo8pj_LVlynA-53">
          <mxGeometry width="40" height="10" as="geometry">
            <mxRectangle width="40" height="10" as="alternateBounds" />
          </mxGeometry>
        </mxCell>
        <mxCell id="hXCaVewzjo8pj_LVlynA-55" style="shape=tableRow;horizontal=0;startSize=0;swimlaneHead=0;swimlaneBody=0;top=0;left=0;bottom=0;right=0;dropTarget=0;collapsible=0;recursiveResize=0;expand=0;fontStyle=0;fillColor=none;strokeColor=inherit;" vertex="1" parent="hXCaVewzjo8pj_LVlynA-14">
          <mxGeometry y="140" width="40" height="10" as="geometry" />
        </mxCell>
        <mxCell id="hXCaVewzjo8pj_LVlynA-56" style="connectable=0;recursiveResize=0;strokeColor=inherit;fillColor=none;align=center;whiteSpace=wrap;html=1;" vertex="1" parent="hXCaVewzjo8pj_LVlynA-55">
          <mxGeometry width="40" height="10" as="geometry">
            <mxRectangle width="40" height="10" as="alternateBounds" />
          </mxGeometry>
        </mxCell>
        <mxCell id="hXCaVewzjo8pj_LVlynA-57" style="shape=tableRow;horizontal=0;startSize=0;swimlaneHead=0;swimlaneBody=0;top=0;left=0;bottom=0;right=0;dropTarget=0;collapsible=0;recursiveResize=0;expand=0;fontStyle=0;fillColor=none;strokeColor=inherit;" vertex="1" parent="hXCaVewzjo8pj_LVlynA-14">
          <mxGeometry y="150" width="40" height="10" as="geometry" />
        </mxCell>
        <mxCell id="hXCaVewzjo8pj_LVlynA-58" style="connectable=0;recursiveResize=0;strokeColor=inherit;fillColor=none;align=center;whiteSpace=wrap;html=1;" vertex="1" parent="hXCaVewzjo8pj_LVlynA-57">
          <mxGeometry width="40" height="10" as="geometry">
            <mxRectangle width="40" height="10" as="alternateBounds" />
          </mxGeometry>
        </mxCell>
        <mxCell id="hXCaVewzjo8pj_LVlynA-15" value="" style="shape=tableRow;horizontal=0;startSize=0;swimlaneHead=0;swimlaneBody=0;top=0;left=0;bottom=0;right=0;dropTarget=0;collapsible=0;recursiveResize=0;expand=0;fontStyle=0;fillColor=none;strokeColor=inherit;" vertex="1" parent="hXCaVewzjo8pj_LVlynA-14">
          <mxGeometry y="160" width="40" height="10" as="geometry" />
        </mxCell>
        <mxCell id="hXCaVewzjo8pj_LVlynA-16" value="&amp;nbsp;" style="connectable=0;recursiveResize=0;strokeColor=inherit;fillColor=none;align=center;whiteSpace=wrap;html=1;" vertex="1" parent="hXCaVewzjo8pj_LVlynA-15">
          <mxGeometry width="40" height="10" as="geometry">
            <mxRectangle width="40" height="10" as="alternateBounds" />
          </mxGeometry>
        </mxCell>
        <mxCell id="hXCaVewzjo8pj_LVlynA-59" value="&lt;font style=&quot;color: rgb(0, 0, 0); font-size: 16px;&quot;&gt;&lt;b style=&quot;&quot;&gt;input value&lt;/b&gt;&lt;/font&gt;" style="whiteSpace=wrap;html=1;strokeColor=none;fillColor=#FFFFFF;" vertex="1" parent="nTCiAnWbDD8MHm8vVQ30-1">
          <mxGeometry x="21" y="375" width="95" height="30" as="geometry" />
        </mxCell>
        <mxCell id="hXCaVewzjo8pj_LVlynA-60" value="" style="endArrow=none;html=1;rounded=0;" edge="1" parent="nTCiAnWbDD8MHm8vVQ30-1">
          <mxGeometry width="50" height="50" relative="1" as="geometry">
            <mxPoint x="119" y="390" as="sourcePoint" />
            <mxPoint x="136" y="390" as="targetPoint" />
          </mxGeometry>
        </mxCell>
        <mxCell id="hXCaVewzjo8pj_LVlynA-61" value="" style="endArrow=classic;html=1;rounded=0;endFill=1;endSize=12;entryX=-0.041;entryY=0.488;entryDx=0;entryDy=0;entryPerimeter=0;" edge="1" parent="nTCiAnWbDD8MHm8vVQ30-1" target="hXCaVewzjo8pj_LVlynA-51">
          <mxGeometry width="50" height="50" relative="1" as="geometry">
            <mxPoint x="129" y="390" as="sourcePoint" />
            <mxPoint x="538" y="392" as="targetPoint" />
          </mxGeometry>
        </mxCell>
      </root>
    </mxGraphModel>
  </diagram>
</mxfile>
